<?xml version="1.0" encoding="utf-8"?>
<!-- Generator: Adobe Illustrator 17.0.0, SVG Export Plug-In . SVG Version: 6.00 Build 0)  -->
<!DOCTYPE svg PUBLIC "-//W3C//DTD SVG 1.1//EN" "http://www.w3.org/Graphics/SVG/1.1/DTD/svg11.dtd">
<svg version="1.1" id="Layer_1" xmlns="http://www.w3.org/2000/svg" xmlns:xlink="http://www.w3.org/1999/xlink" x="0px" y="0px"
	 width="85px" height="86.668px" viewBox="1.49 0 85 86.668" enable-background="new 1.49 0 85 86.668" xml:space="preserve">
<g>
	<path fill="#FFFFFF" d="M31.315,76.831c0,1.793-1.431,2.991-3.278,3.279c-1.849,0.288-12.771,1.371-12.771,1.371
		c-1.793,0-3.279-1.486-3.279-3.279L6,44.04c0-1.793,1.485-3.279,3.278-3.279h18.758c1.792,0,3.278,1.486,3.278,3.279v32.791H31.315
		z M79.161,51.672c0.563,1.641,0.77,3.18,0.77,3.896c0.104,2.562-0.665,4.969-2.203,7.018c0.563,1.897,0.563,3.949,0,5.996
		c-0.512,1.896-1.482,3.588-2.764,4.816c0.306,3.844-0.564,6.971-2.514,9.273c-2.204,2.615-5.584,3.945-10.093,3.996
		c-0.206,0-0.922,0-1.845,0h-3.896h-0.87c-7.328,0-14.245-2.408-19.776-4.303c-3.229-1.128-6.063-2.605-8.236-2.213
		c-2.76,0.324-3.14-1.529-3.14-3.322V43.986c0-1.688,1.434-3.126,3.126-3.279c1.895-0.152,6.812-6.248,9.068-9.221
		c1.845-2.357,7.229-12.038,8.82-13.625c1.999-1.998,2.562-5.076,3.176-8.045c0.563-3.025-0.739-6.689,1.464-8.841
		C50.862,0.359,51.684,0,52.554,0c11.479,0,10.551,9.875,10.551,13.82c0,4.201-5.132,14.651-6.514,17.314
		c-0.564,1.128-1.076,1.64-1.487,3.279L72.143,34.2c5.33,0,9.838,4.508,9.838,9.837C81.981,46.754,80.905,49.674,79.161,51.672z"/>
</g>
</svg>
